<?xml version="1.0" encoding="UTF-8"?>
<svg id="Layer_2" data-name="Layer 2" xmlns="http://www.w3.org/2000/svg" viewBox="0 0 950 422.07">
  <defs>
    <style>
      .cls-1 {
        fill: #fff;
      }
    </style>
  </defs>
  <g id="Layer_1-2" data-name="Layer 1">
    <g id="Artwork_4" data-name="Artwork 4">
      <g>
        <g>
          <path class="cls-1" d="m16.1,326.48c-10.69,0-16.1,4.04-16.1,15.45v14.26h32.2v-14.26c0-11.41-5.41-15.45-16.1-15.45Zm8.14,22.57H7.96v-7.13c0-6.95,1.43-8.32,8.14-8.32s8.14,1.37,8.14,8.32v7.13Z"/>
          <rect class="cls-1" x="6.24" y="314.06" width="7.96" height="8.08"/>
          <rect class="cls-1" x="17.94" y="314.06" width="7.96" height="8.08"/>
          <path class="cls-1" d="m46.99,358.67v-32.2h-7.96v32.2c0,3.51-1.19,5.05-2.91,5.05-.48,0-1.19-.06-2.43-.18l-.89,7.07c1.07.12,2.32.24,3.33.24,6.42,0,10.87-4.87,10.87-12.18Z"/>
          <rect class="cls-1" x="83.35" y="359.86" width="7.96" height="8.08"/>
          <rect class="cls-1" x="123.04" y="314.06" width="7.96" height="8.08"/>
          <rect class="cls-1" x="111.33" y="314.06" width="7.96" height="8.08"/>
          <path class="cls-1" d="m164.98,349.05h-8.85s0,0,0,0h-7.07v-34.46h-7.96v34.46h-8.85s0,0,0,0h-7.07v-22.57h-7.96v22.57h-7.07s0,0,0,0c0,0,0,0,0,0h-7.07v-9.09c0-8.44-6.48-13.48-15.74-13.48-3.33,0-6.83.65-10.34,1.54l.83,6.48c4.75-.54,7.36-.89,9.5-.89,5.28,0,7.78,2.14,7.78,6.36v9.09h-22.4s0,0,0,0h-8.85v-34.46h-7.96v41.59h16.81s0,0,0,0h37.42s0,0,0,0c0,0,0,0,0,0h22.09s0,0,0,0h23.88s0,0,0,0c0,0,0,0,0,0h16.81v-41.59h-7.96v34.46Z"/>
          <path class="cls-1" d="m228.07,356.47v-30h-7.96v30c0,4.52-3.27,7.31-9.45,7.31s-10.15-3.21-10.15-7.66c0-2.14.71-7.96,2.02-16.22l-7.84-1.13c-1.01,6.36-2.14,14.14-2.14,17.35,0,8.55,7.72,14.79,18.12,14.79s17.41-5.82,17.41-14.44Z"/>
          <rect class="cls-1" x="206.33" y="318.4" width="7.96" height="8.08"/>
          <rect class="cls-1" x="287.3" y="359.86" width="7.96" height="8.08"/>
          <path class="cls-1" d="m344.15,356.18v-7.13h-13.48c-1.49-1.9-2.32-4.28-2.32-6.89,0-5.11,3.09-8.56,7.73-8.56,1.37,0,2.85.3,4.63.95l2.73-6.71c-2.44-.89-5.23-1.36-7.55-1.36-8.79,0-15.51,6.65-15.51,15.74,0,2.38.48,4.7,1.37,6.83h-7.66s0,0,0,0h-7.07v-9.09c0-8.44-6.48-13.48-15.74-13.48-3.33,0-6.83.65-10.34,1.54l.83,6.48c4.75-.54,7.37-.89,9.5-.89,5.29,0,7.78,2.14,7.78,6.36v9.09h-22.4s0,0,0,0h-7.06v-34.46h-7.96v34.46h-10.4v-26.44h-7.96v26.44h-8.67v7.13h42.06s0,0,0,0h37.42s0,0,0,0h30.06Z"/>
          <rect class="cls-1" x="378.14" y="318.39" width="7.96" height="8.08"/>
          <path class="cls-1" d="m421.98,356.18v-29.7h-7.96v22.57h-14.14v-22.57h-7.96v30c0,4.52-3.27,7.31-9.45,7.31s-10.16-3.21-10.16-7.66c0-2.14.71-7.96,2.02-16.22l-7.84-1.13c-1.01,6.36-2.14,14.14-2.14,17.35,0,8.55,7.72,14.79,18.12,14.79s17.41-5.82,17.41-14.44v-.3h22.1Z"/>
          <rect class="cls-1" x="414.02" y="359.74" width="7.96" height="8.08"/>
          <path class="cls-1" d="m471.65,356.18s0,0,0,0h116.62v-14.55c0-11.11-5.4-15.15-16.1-15.15-5.05,0-9.44.89-11.35,1.6-.71,2.67-1.72,8.26-1.72,13.96,0,2.56.18,4.93.42,7.01h-14.38v-9.09c0-8.44-6.48-13.48-15.74-13.48-3.33,0-6.83.65-10.34,1.54l.83,6.48c4.75-.54,7.36-.89,9.5-.89,5.29,0,7.78,2.14,7.78,6.36v9.09h-29.47v-7.42c0-11.11-5.4-15.15-16.1-15.15-5.05,0-9.44.89-11.35,1.6-.71,2.67-1.72,8.26-1.72,13.96,0,2.56.18,4.93.42,7.01h-14.38v-6.65c0-11.94-5.59-15.92-15.09-15.92h-4.81v7.13h4.81c5.65,0,7.13,1.49,7.13,8.79v6.65h-15.03v7.13h30.06s0,0,0,0Zm96.06-22.28c1.37-.18,2.91-.3,4.46-.3,6.71,0,8.14,1.37,8.14,8.02v7.42h-12.77c-.3-2.14-.48-4.75-.48-7.01,0-2.43.24-5.46.65-8.13Zm-80.56,0c1.37-.18,2.91-.3,4.46-.3,6.71,0,8.14,1.37,8.14,8.02v7.42h-12.77c-.3-2.14-.48-4.75-.48-7.01,0-2.43.24-5.46.65-8.13Z"/>
          <path class="cls-1" d="m652.19,342.16c0-5.11,3.09-8.56,7.73-8.56,1.37,0,2.85.3,4.63.95l2.73-6.71c-2.44-.89-5.23-1.36-7.55-1.36-8.79,0-15.51,6.65-15.51,15.74,0,2.38.48,4.7,1.37,6.83h-14.73v-6.65c0-11.94-5.59-15.92-15.09-15.92h-4.81v7.13h4.81c5.65,0,7.13,1.49,7.13,8.79v6.65h-15.03v7.13h60.12v-7.13h-13.48c-1.49-1.9-2.32-4.28-2.32-6.89Z"/>
          <path class="cls-1" d="m752.17,356.18s0,0,0,0h36.06v-14.55c0-11.11-5.4-15.15-16.1-15.15-5.05,0-9.44.89-11.35,1.6-.71,2.67-1.72,8.26-1.72,13.96,0,2.56.18,4.93.42,7.01h-14.38v-9.32c0-2.38-.95-8.97-1.66-13.25l-7.84,1.19c.89,5.23,1.55,10.51,1.55,12.06v9.32h-7.66c-.72,0-1.31-.18-2.32-1.01.48-1.9.71-4.1.71-6.71v-11.88h-7.96v11.88c0,6.77-.77,7.72-4.34,7.72h-4.81v-19.6h-7.96v19.6h-16.75v-34.46h-7.96v41.59h37.49c3.21,0,5.7-.59,7.6-1.9,1.96,1.25,4.1,1.9,6.3,1.9h22.69s0,0,0,0Zm15.51-22.28c1.37-.18,2.91-.3,4.46-.3,6.71,0,8.14,1.37,8.14,8.02v7.42h-12.77c-.3-2.14-.48-4.75-.48-7.01,0-2.43.24-5.46.65-8.13Z"/>
          <rect class="cls-1" x="824.35" y="314.06" width="7.96" height="8.08"/>
          <rect class="cls-1" x="812.65" y="314.06" width="7.96" height="8.08"/>
          <path class="cls-1" d="m863.92,327.37h-10.4l1.67-3.21c1.13-2.14,2.2-3.98,5.16-8.49l-6.65-3.92c-2.85,4.34-4.28,6.71-5.58,9.09l-2.79,5.52,5.47,8.14h13.13c3.51,0,5.11,2.02,5.11,7.48v7.07h-26.55s0,0-.01,0h-7.01v-22.57h-14.38c-10.4,0-13.25,4.64-13.25,14.85s2.85,14.85,13.25,14.85h21.38s0,0,.01,0h34.51v-14.2c0-6.24-2.43-14.61-13.07-14.61Zm-36.42,21.68h-6.42c-4.69,0-5.28-.29-5.28-7.72s.59-7.72,5.28-7.72h6.42v15.44Z"/>
          <rect class="cls-1" x="918.93" y="314.06" width="7.96" height="8.08"/>
          <path class="cls-1" d="m948.34,326.48l-7.84,1.19c.89,5.23,1.54,10.51,1.54,12.06v9.32h-7.66c-.71,0-1.31-.18-2.32-1.01.48-1.9.71-4.1.71-6.71v-11.88h-7.96v11.88c0,6.77-.77,7.72-4.33,7.72h-4.81v-22.57h-7.96v6.6h-14.14v-6.6h-7.96v32.2c0,3.51-1.19,5.05-2.91,5.05-.48,0-1.19-.06-2.44-.18l-.89,7.07c1.07.12,2.32.24,3.33.24,6.42,0,10.87-4.87,10.87-12.18v-18.48h14.14v15.98h12.77c3.21,0,5.7-.59,7.61-1.9,1.96,1.25,4.1,1.9,6.3,1.9h15.62v-16.46c0-2.38-.95-8.97-1.66-13.25Z"/>
          <rect class="cls-1" x="930.63" y="314.06" width="7.96" height="8.08"/>
          <rect class="cls-1" x="925.17" y="304.02" width="7.25" height="7.37"/>
          <polygon class="cls-1" points="12.98 412.77 8.6 394.63 0 394.63 0 419.5 5.05 419.5 5.05 400.26 5.59 400.26 10.46 418.41 15.51 418.41 20.37 400.26 20.93 400.26 20.93 419.5 25.97 419.5 25.97 394.63 17.37 394.63 12.98 412.77"/>
          <path class="cls-1" d="m48.7,411.2c0,2.92-1.46,4.35-4.42,4.35s-4.43-1.39-4.43-4.35v-16.57h-5.05v16.46c0,6.22,3.26,8.85,9.48,8.85s9.47-2.64,9.47-8.85v-16.46h-5.05v16.57Z"/>
          <path class="cls-1" d="m71.4,404.65c-4.17-1.32-5.16-1.87-5.16-3.44s1.28-2.63,3.99-2.63c1.53,0,5.04.33,7.28.59l.4-3.99c-2.08-.44-5.78-.99-8.19-.99-5.05,0-8.49,2.23-8.49,7.39,0,3.99,2.12,5.89,7.72,7.5,3.59,1.02,4.47,1.72,4.47,3.26,0,1.94-1.17,3.22-3.88,3.22-1.9,0-5.38-.36-7.5-.66l-.51,3.91c2.12.47,5.82,1.13,8.31,1.13,4.9,0,8.6-2.52,8.6-7.94,0-4.14-1.65-5.64-7.02-7.35Z"/>
          <path class="cls-1" d="m89.34,394.63l-5.6,24.87h5.05l.99-4.5h8.7l.99,4.5h5.05l-5.6-24.87h-9.58Zm1.39,15.98l2.52-11.81h1.75l2.53,11.81h-6.8Z"/>
          <polygon class="cls-1" points="111.49 419.5 127.58 419.5 127.58 415.11 116.54 415.11 116.54 409.15 125.39 409.15 125.39 404.83 116.54 404.83 116.54 399.02 127.58 399.02 127.58 394.63 111.49 394.63 111.49 419.5"/>
          <path class="cls-1" d="m143.77,394.63h-8.37v24.87h8.37c8.93,0,10.57-4.42,10.57-12.91s-1.9-11.96-10.57-11.96Zm0,20.49h-3.33v-16.09h3.33c4.9,0,5.38,2.12,5.38,7.57s-.47,8.52-5.38,8.52Z"/>
          <path class="cls-1" d="m188.85,406.7c1.97-1.24,2.74-2.67,2.74-5.49,0-4.76-2.74-6.59-7.75-6.59h-9.77v24.87h9.91c4.98,0,8.08-2.16,8.08-7.13,0-3.22-1.1-4.76-3.22-5.67Zm-9.73-7.75h4.46c1.9,0,2.89.88,2.89,2.93s-.88,3-2.86,3h-4.5v-5.92Zm4.61,16.24h-4.61v-6.07h4.61c2.01,0,3.22.95,3.22,3,0,2.45-1.14,3.07-3.22,3.07Z"/>
          <rect class="cls-1" x="199.99" y="394.63" width="5.05" height="24.87"/>
          <polygon class="cls-1" points="228.98 415.11 228.62 415.11 222.62 394.63 214.1 394.63 214.1 419.5 219.14 419.5 219.14 399.02 219.51 399.02 225.73 419.5 234.03 419.5 234.03 394.63 228.98 394.63 228.98 415.11"/>
          <polygon class="cls-1" points="267.77 412.77 263.38 394.63 254.78 394.63 254.78 419.5 259.83 419.5 259.83 400.26 260.38 400.26 265.24 418.41 270.29 418.41 275.15 400.26 275.71 400.26 275.71 419.5 280.75 419.5 280.75 394.63 272.16 394.63 267.77 412.77"/>
          <path class="cls-1" d="m299.02,394.19c-7.83,0-10.32,4.61-10.32,13.02s2.48,12.73,10.32,12.73,10.32-4.32,10.32-12.73-2.49-13.02-10.32-13.02Zm0,21.36c-4.1,0-5.12-2.6-5.12-8.34s1.03-8.63,5.12-8.63,5.12,2.89,5.12,8.63-1.02,8.34-5.12,8.34Z"/>
          <polygon class="cls-1" points="331.59 404.8 322.34 404.8 322.34 394.63 317.29 394.63 317.29 419.5 322.34 419.5 322.34 409.19 331.59 409.19 331.59 419.5 336.64 419.5 336.64 394.63 331.59 394.63 331.59 404.8"/>
          <path class="cls-1" d="m349.2,394.63l-5.6,24.87h5.05l.99-4.5h8.7l.99,4.5h5.05l-5.6-24.87h-9.58Zm1.39,15.98l2.52-11.81h1.75l2.53,11.81h-6.8Z"/>
          <polygon class="cls-1" points="384.33 412.77 379.95 394.63 371.35 394.63 371.35 419.5 376.4 419.5 376.4 400.26 376.94 400.26 381.81 418.41 386.86 418.41 391.72 400.26 392.27 400.26 392.27 419.5 397.32 419.5 397.32 394.63 388.72 394.63 384.33 412.77"/>
          <polygon class="cls-1" points="419.35 412.77 414.96 394.63 406.37 394.63 406.37 419.5 411.42 419.5 411.42 400.26 411.96 400.26 416.83 418.41 421.88 418.41 426.74 400.26 427.29 400.26 427.29 419.5 432.34 419.5 432.34 394.63 423.74 394.63 419.35 412.77"/>
          <polygon class="cls-1" points="441.39 419.5 457.48 419.5 457.48 415.11 446.44 415.11 446.44 409.15 455.29 409.15 455.29 404.83 446.44 404.83 446.44 399.02 457.48 399.02 457.48 394.63 441.39 394.63 441.39 419.5"/>
          <path class="cls-1" d="m473.67,394.63h-8.37v24.87h8.37c8.93,0,10.58-4.42,10.58-12.91s-1.9-11.96-10.58-11.96Zm0,20.49h-3.33v-16.09h3.33c4.9,0,5.38,2.12,5.38,7.57s-.48,8.52-5.38,8.52Z"/>
          <path class="cls-1" d="m518.75,406.7c1.97-1.24,2.74-2.67,2.74-5.49,0-4.76-2.74-6.59-7.75-6.59h-9.77v24.87h9.91c4.98,0,8.08-2.16,8.08-7.13,0-3.22-1.1-4.76-3.22-5.67Zm-9.73-7.75h4.46c1.9,0,2.89.88,2.89,2.93s-.88,3-2.86,3h-4.5v-5.92Zm4.61,16.24h-4.61v-6.07h4.61c2.01,0,3.22.95,3.22,3,0,2.45-1.14,3.07-3.22,3.07Z"/>
          <rect class="cls-1" x="529.88" y="394.63" width="5.05" height="24.87"/>
          <polygon class="cls-1" points="558.88 415.11 558.52 415.11 552.52 394.63 543.99 394.63 543.99 419.5 549.04 419.5 549.04 399.02 549.41 399.02 555.63 419.5 563.93 419.5 563.93 394.63 558.88 394.63 558.88 415.11"/>
          <path class="cls-1" d="m588.19,394.63l-5.6,24.87h5.05l.99-4.5h8.7l.99,4.5h5.05l-5.6-24.87h-9.58Zm1.39,15.98l2.53-11.81h1.75l2.53,11.81h-6.81Z"/>
          <path class="cls-1" d="m611.11,394.63v20.45c0,2.08-.95,2.59-2.78,2.59v4.39c5.49,0,7.83-1.28,7.83-6.77l-.04-20.67h-5.01Z"/>
          <polygon class="cls-1" points="630.08 394.63 625.03 394.63 625.03 419.5 639.19 419.5 639.19 415.04 630.08 415.04 630.08 394.63"/>
          <path class="cls-1" d="m649.46,394.63l-5.6,24.87h5.05l.99-4.5h8.7l.99,4.5h5.05l-5.6-24.87h-9.58Zm1.39,15.98l2.53-11.81h1.75l2.53,11.81h-6.81Z"/>
          <polygon class="cls-1" points="686.49 415.11 686.13 415.11 680.13 394.63 671.6 394.63 671.6 419.5 676.65 419.5 676.65 399.02 677.02 399.02 683.24 419.5 691.54 419.5 691.54 394.63 686.49 394.63 686.49 415.11"/>
          <polygon class="cls-1" points="710.05 399.09 716.71 399.09 716.71 419.5 721.76 419.5 721.76 399.09 728.34 399.09 728.34 394.63 710.05 394.63 710.05 399.09"/>
          <path class="cls-1" d="m753.6,402.82c0-5.67-3.11-8.19-8.78-8.19h-9.66v24.87h5.05v-8.34h4.86l2.89,8.34h5.52l-3.55-9.51c2.27-1.43,3.66-3.73,3.66-7.17Zm-8.7,4.03h-4.68v-7.9h4.61c2.41,0,3.62,1.57,3.62,3.95,0,2.2-1.02,3.95-3.55,3.95Z"/>
          <path class="cls-1" d="m764.71,394.63l-5.6,24.87h5.05l.99-4.5h8.7l.99,4.5h5.05l-5.6-24.87h-9.58Zm1.39,15.98l2.52-11.81h1.75l2.53,11.81h-6.8Z"/>
          <path class="cls-1" d="m795.23,394.63h-8.37v24.87h8.37c8.93,0,10.57-4.42,10.57-12.91s-1.9-11.96-10.57-11.96Zm0,20.49h-3.33v-16.09h3.33c4.9,0,5.38,2.12,5.38,7.57s-.47,8.52-5.38,8.52Z"/>
          <rect class="cls-1" x="813.83" y="394.63" width="5.05" height="24.87"/>
          <polygon class="cls-1" points="842.83 415.11 842.47 415.11 836.47 394.63 827.95 394.63 827.95 419.5 832.99 419.5 832.99 399.02 833.36 399.02 839.58 419.5 847.88 419.5 847.88 394.63 842.83 394.63 842.83 415.11"/>
          <path class="cls-1" d="m866.66,398.66c2.41,0,5.82.25,7.72.48l.14-3.91c-2.08-.44-5.85-1.03-8.67-1.03-7.35,0-9.99,3.81-9.99,12.88,0,8.34,2.05,12.88,10.17,12.88,2.38,0,6.25-.48,8.49-.84v-12.91h-7.24v4.39h2.27v4.83c-.66.07-1.94.14-3.04.14-4.53,0-5.45-1.87-5.45-8.49,0-6.99,1.28-8.41,5.6-8.41Z"/>
          <path class="cls-1" d="m903.88,398.66c1.64,0,4.72.29,6.4.55l.14-4.02c-1.54-.36-4.68-.99-7.28-.99-7.39,0-9.51,3.44-9.51,12.88,0,8.7,1.83,12.88,9.51,12.88,2.27,0,5.56-.48,7.24-.84l-.11-4.14c-1.46.22-4.57.52-6.25.52-4.32,0-5.19-1.72-5.19-8.42,0-7.06,1.21-8.41,5.05-8.41Z"/>
          <path class="cls-1" d="m927.12,394.19c-7.83,0-10.32,4.61-10.32,13.02s2.48,12.73,10.32,12.73,10.32-4.32,10.32-12.73-2.49-13.02-10.32-13.02Zm0,21.36c-4.1,0-5.12-2.6-5.12-8.34s1.03-8.63,5.12-8.63,5.12,2.89,5.12,8.63-1.02,8.34-5.12,8.34Z"/>
          <rect class="cls-1" x="944.73" y="413.43" width="5.27" height="6.07"/>
        </g>
        <path class="cls-1" d="m103.84,71.24l25.58,11.39v105.27c0,25.87-20.97,46.84-46.84,46.84h-34.44c-25.87,0-46.84-20.97-46.84-46.84v-104.55l25.58-11.39v115.94c0,11.75,9.52,21.26,21.26,21.26h34.45c11.74,0,21.26-9.52,21.26-21.26v-116.67Zm272.28,167.82l20.07,20.07,20.07-20.07-20.07-20.07-20.07,20.07ZM83.74,73.28l-20.07-20.07-20.07,20.07,20.07,20.07,20.07-20.07Zm607.15,95.39h-111.06c-17,0-30.82-13.82-30.82-30.78s13.82-30.82,30.82-30.82h34.88v-25.57h-34.88c-31.08,0-56.39,25.3-56.39,56.39,0,11.33,3.41,21.94,9.19,30.78h-61.75c5.78-8.84,9.19-19.45,9.19-30.78,0-31.09-25.3-56.39-56.39-56.39h-59.57v25.57h59.57c17,0,30.82,13.82,30.82,30.82s-13.82,30.78-30.82,30.78h-131V0l-25.57,11.37v157.3h-43.22V23.28l-25.57,11.37v134.03h-48.93v25.57h566.17l22.28-163.97c.96-5.82,5.97-10.03,11.87-10.03h9.95l29.75,174h51.15l22.28-163.97c.96-5.82,5.97-10.03,11.87-10.03h9.95l29.67,173.58.08.42h34.3l-39.43-185.44-42.49.57c-11.26,0-22.24,8.04-24.31,19.1l-25.35,134.87h.01s-32.86-154.55-32.86-154.55l-42.49.57c-11.25,0-22.24,8.04-24.31,19.1l-26.57,140.19Z"/>
      </g>
    </g>
  </g>
</svg>